<svg width="864" height="224" viewBox="0 0 864 224" fill="none" xmlns="http://www.w3.org/2000/svg">
<rect width="864" height="224" fill="white"/>
<g opacity="0.9" filter="url(#filter0_i_254_139)">
<rect x="16" y="47" width="160" height="80" rx="8" fill="#231A26"/>
</g>
<path d="M22.58 179.42L22.21 181.15H23.53V182.15H22L21.6 184H20.51L20.91 182.15H18.95L18.55 184H17.46L17.86 182.15H16.31V181.15H18.07L18.44 179.42H16.9V178.42H18.65L19.04 176.6H20.13L19.74 178.42H21.7L22.09 176.6H23.18L22.79 178.42H24.12V179.42H22.58ZM21.49 179.42H19.53L19.16 181.15H21.12L21.49 179.42ZM25.4707 177.75V176.71H27.5507V184H26.4007V177.75H25.4707ZM33.7568 182.58H30.8468L30.3468 184H29.1568L31.6468 177.04H32.9668L35.4568 184H34.2568L33.7568 182.58ZM33.4368 181.65L32.3068 178.42L31.1668 181.65H33.4368ZM36.5395 177.75V176.71H38.6195V184H37.4695V177.75H36.5395ZM40.3455 182.48V181.62L43.7055 176.8H45.0855V181.49H46.0155V182.48H45.0855V184H43.9655V182.48H40.3455ZM44.0155 177.96L41.6555 181.49H44.0155V177.96ZM47.1102 177.75V176.71H49.1902V184H48.0402V177.75H47.1102ZM55.3962 182.58H52.4862L51.9862 184H50.7962L53.2862 177.04H54.6062L57.0962 184H55.8962L55.3962 182.58ZM55.0762 181.65L53.9462 178.42L52.8062 181.65H55.0762Z" fill="#616161"/>
<g opacity="0.9" filter="url(#filter1_i_254_139)">
<rect x="352" y="47" width="160" height="80" rx="8" fill="black"/>
</g>
<path d="M358.58 179.42L358.21 181.15H359.53V182.15H358L357.6 184H356.51L356.91 182.15H354.95L354.55 184H353.46L353.86 182.15H352.31V181.15H354.07L354.44 179.42H352.9V178.42H354.65L355.04 176.6H356.13L355.74 178.42H357.7L358.09 176.6H359.18L358.79 178.42H360.12V179.42H358.58ZM357.49 179.42H355.53L355.16 181.15H357.12L357.49 179.42ZM361.621 180.26C361.621 179.107 361.814 178.207 362.201 177.56C362.594 176.907 363.267 176.58 364.221 176.58C365.174 176.58 365.844 176.907 366.231 177.56C366.624 178.207 366.821 179.107 366.821 180.26C366.821 181.427 366.624 182.34 366.231 183C365.844 183.653 365.174 183.98 364.221 183.98C363.267 183.98 362.594 183.653 362.201 183C361.814 182.34 361.621 181.427 361.621 180.26ZM365.701 180.26C365.701 179.72 365.664 179.263 365.591 178.89C365.524 178.517 365.384 178.213 365.171 177.98C364.957 177.74 364.641 177.62 364.221 177.62C363.801 177.62 363.484 177.74 363.271 177.98C363.057 178.213 362.914 178.517 362.841 178.89C362.774 179.263 362.741 179.72 362.741 180.26C362.741 180.82 362.774 181.29 362.841 181.67C362.907 182.05 363.047 182.357 363.261 182.59C363.481 182.823 363.801 182.94 364.221 182.94C364.641 182.94 364.957 182.823 365.171 182.59C365.391 182.357 365.534 182.05 365.601 181.67C365.667 181.29 365.701 180.82 365.701 180.26ZM368.327 180.26C368.327 179.107 368.52 178.207 368.907 177.56C369.3 176.907 369.974 176.58 370.927 176.58C371.88 176.58 372.55 176.907 372.937 177.56C373.33 178.207 373.527 179.107 373.527 180.26C373.527 181.427 373.33 182.34 372.937 183C372.55 183.653 371.88 183.98 370.927 183.98C369.974 183.98 369.3 183.653 368.907 183C368.52 182.34 368.327 181.427 368.327 180.26ZM372.407 180.26C372.407 179.72 372.37 179.263 372.297 178.89C372.23 178.517 372.09 178.213 371.877 177.98C371.664 177.74 371.347 177.62 370.927 177.62C370.507 177.62 370.19 177.74 369.977 177.98C369.764 178.213 369.62 178.517 369.547 178.89C369.48 179.263 369.447 179.72 369.447 180.26C369.447 180.82 369.48 181.29 369.547 181.67C369.614 182.05 369.754 182.357 369.967 182.59C370.187 182.823 370.507 182.94 370.927 182.94C371.347 182.94 371.664 182.823 371.877 182.59C372.097 182.357 372.24 182.05 372.307 181.67C372.374 181.29 372.407 180.82 372.407 180.26ZM375.033 180.26C375.033 179.107 375.227 178.207 375.613 177.56C376.007 176.907 376.68 176.58 377.633 176.58C378.587 176.58 379.257 176.907 379.643 177.56C380.037 178.207 380.233 179.107 380.233 180.26C380.233 181.427 380.037 182.34 379.643 183C379.257 183.653 378.587 183.98 377.633 183.98C376.68 183.98 376.007 183.653 375.613 183C375.227 182.34 375.033 181.427 375.033 180.26ZM379.113 180.26C379.113 179.72 379.077 179.263 379.003 178.89C378.937 178.517 378.797 178.213 378.583 177.98C378.37 177.74 378.053 177.62 377.633 177.62C377.213 177.62 376.897 177.74 376.683 177.98C376.47 178.213 376.327 178.517 376.253 178.89C376.187 179.263 376.153 179.72 376.153 180.26C376.153 180.82 376.187 181.29 376.253 181.67C376.32 182.05 376.46 182.357 376.673 182.59C376.893 182.823 377.213 182.94 377.633 182.94C378.053 182.94 378.37 182.823 378.583 182.59C378.803 182.357 378.947 182.05 379.013 181.67C379.08 181.29 379.113 180.82 379.113 180.26ZM381.739 180.26C381.739 179.107 381.933 178.207 382.319 177.56C382.713 176.907 383.386 176.58 384.339 176.58C385.293 176.58 385.963 176.907 386.349 177.56C386.743 178.207 386.939 179.107 386.939 180.26C386.939 181.427 386.743 182.34 386.349 183C385.963 183.653 385.293 183.98 384.339 183.98C383.386 183.98 382.713 183.653 382.319 183C381.933 182.34 381.739 181.427 381.739 180.26ZM385.819 180.26C385.819 179.72 385.783 179.263 385.709 178.89C385.643 178.517 385.503 178.213 385.289 177.98C385.076 177.74 384.759 177.62 384.339 177.62C383.919 177.62 383.603 177.74 383.389 177.98C383.176 178.213 383.033 178.517 382.959 178.89C382.893 179.263 382.859 179.72 382.859 180.26C382.859 180.82 382.893 181.29 382.959 181.67C383.026 182.05 383.166 182.357 383.379 182.59C383.599 182.823 383.919 182.94 384.339 182.94C384.759 182.94 385.076 182.823 385.289 182.59C385.509 182.357 385.653 182.05 385.719 181.67C385.786 181.29 385.819 180.82 385.819 180.26ZM388.446 180.26C388.446 179.107 388.639 178.207 389.026 177.56C389.419 176.907 390.092 176.58 391.046 176.58C391.999 176.58 392.669 176.907 393.056 177.56C393.449 178.207 393.646 179.107 393.646 180.26C393.646 181.427 393.449 182.34 393.056 183C392.669 183.653 391.999 183.98 391.046 183.98C390.092 183.98 389.419 183.653 389.026 183C388.639 182.34 388.446 181.427 388.446 180.26ZM392.526 180.26C392.526 179.72 392.489 179.263 392.416 178.89C392.349 178.517 392.209 178.213 391.996 177.98C391.782 177.74 391.466 177.62 391.046 177.62C390.626 177.62 390.309 177.74 390.096 177.98C389.882 178.213 389.739 178.517 389.666 178.89C389.599 179.263 389.566 179.72 389.566 180.26C389.566 180.82 389.599 181.29 389.666 181.67C389.732 182.05 389.872 182.357 390.086 182.59C390.306 182.823 390.626 182.94 391.046 182.94C391.466 182.94 391.782 182.823 391.996 182.59C392.216 182.357 392.359 182.05 392.426 181.67C392.492 181.29 392.526 180.82 392.526 180.26ZM395.152 180.26C395.152 179.107 395.345 178.207 395.732 177.56C396.125 176.907 396.799 176.58 397.752 176.58C398.705 176.58 399.375 176.907 399.762 177.56C400.155 178.207 400.352 179.107 400.352 180.26C400.352 181.427 400.155 182.34 399.762 183C399.375 183.653 398.705 183.98 397.752 183.98C396.799 183.98 396.125 183.653 395.732 183C395.345 182.34 395.152 181.427 395.152 180.26ZM399.232 180.26C399.232 179.72 399.195 179.263 399.122 178.89C399.055 178.517 398.915 178.213 398.702 177.98C398.489 177.74 398.172 177.62 397.752 177.62C397.332 177.62 397.015 177.74 396.802 177.98C396.589 178.213 396.445 178.517 396.372 178.89C396.305 179.263 396.272 179.72 396.272 180.26C396.272 180.82 396.305 181.29 396.372 181.67C396.439 182.05 396.579 182.357 396.792 182.59C397.012 182.823 397.332 182.94 397.752 182.94C398.172 182.94 398.489 182.823 398.702 182.59C398.922 182.357 399.065 182.05 399.132 181.67C399.199 181.29 399.232 180.82 399.232 180.26Z" fill="#4A4A4A"/>
<path d="M526.58 179.42L526.21 181.15H527.53V182.15H526L525.6 184H524.51L524.91 182.15H522.95L522.55 184H521.46L521.86 182.15H520.31V181.15H522.07L522.44 179.42H520.9V178.42H522.65L523.04 176.6H524.13L523.74 178.42H525.7L526.09 176.6H527.18L526.79 178.42H528.12V179.42H526.58ZM525.49 179.42H523.53L523.16 181.15H525.12L525.49 179.42ZM533.861 177.05V177.98H530.911V180.03H533.211V180.96H530.911V184H529.771V177.05H533.861ZM539.307 177.05V177.98H536.357V180.03H538.657V180.96H536.357V184H535.217V177.05H539.307ZM544.754 177.05V177.98H541.804V180.03H544.104V180.96H541.804V184H540.664V177.05H544.754ZM550.2 177.05V177.98H547.25V180.03H549.55V180.96H547.25V184H546.11V177.05H550.2ZM555.647 177.05V177.98H552.697V180.03H554.997V180.96H552.697V184H551.557V177.05H555.647ZM561.093 177.05V177.98H558.143V180.03H560.443V180.96H558.143V184H557.003V177.05H561.093Z" fill="#4A4A4A"/>
<path d="M694.58 179.42L694.21 181.15H695.53V182.15H694L693.6 184H692.51L692.91 182.15H690.95L690.55 184H689.46L689.86 182.15H688.31V181.15H690.07L690.44 179.42H688.9V178.42H690.65L691.04 176.6H692.13L691.74 178.42H693.7L694.09 176.6H695.18L694.79 178.42H696.12V179.42H694.58ZM693.49 179.42H691.53L691.16 181.15H693.12L693.49 179.42ZM700.041 177.05C700.781 177.05 701.427 177.193 701.981 177.48C702.541 177.76 702.971 178.167 703.271 178.7C703.577 179.227 703.731 179.843 703.731 180.55C703.731 181.257 703.577 181.87 703.271 182.39C702.971 182.91 702.541 183.31 701.981 183.59C701.427 183.863 700.781 184 700.041 184H697.771V177.05H700.041ZM700.041 183.07C700.854 183.07 701.477 182.85 701.911 182.41C702.344 181.97 702.561 181.35 702.561 180.55C702.561 179.743 702.344 179.113 701.911 178.66C701.477 178.207 700.854 177.98 700.041 177.98H698.911V183.07H700.041ZM706.301 177.97V180.01H708.701V180.94H706.301V183.07H709.001V184H705.161V177.04H709.001V177.97H706.301ZM714.475 178.4C714.401 178.093 714.268 177.863 714.075 177.71C713.881 177.557 713.611 177.48 713.265 177.48C712.738 177.48 712.345 177.683 712.085 178.09C711.825 178.49 711.688 179.157 711.675 180.09C711.848 179.797 712.101 179.57 712.435 179.41C712.768 179.25 713.128 179.17 713.515 179.17C713.955 179.17 714.341 179.267 714.675 179.46C715.015 179.647 715.278 179.92 715.465 180.28C715.658 180.64 715.755 181.07 715.755 181.57C715.755 182.037 715.661 182.453 715.475 182.82C715.295 183.187 715.025 183.477 714.665 183.69C714.305 183.897 713.871 184 713.365 184C712.678 184 712.138 183.85 711.745 183.55C711.358 183.243 711.085 182.813 710.925 182.26C710.771 181.707 710.695 181.017 710.695 180.19C710.695 177.75 711.555 176.53 713.275 176.53C713.941 176.53 714.465 176.71 714.845 177.07C715.231 177.43 715.458 177.873 715.525 178.4H714.475ZM713.265 180.13C712.858 180.13 712.511 180.253 712.225 180.5C711.945 180.74 711.805 181.09 711.805 181.55C711.805 182.01 711.935 182.377 712.195 182.65C712.461 182.917 712.831 183.05 713.305 183.05C713.725 183.05 714.055 182.92 714.295 182.66C714.541 182.4 714.665 182.053 714.665 181.62C714.665 181.167 714.545 180.807 714.305 180.54C714.071 180.267 713.725 180.13 713.265 180.13ZM717.131 182.48V181.62L720.491 176.8H721.871V181.49H722.801V182.48H721.871V184H720.751V182.48H717.131ZM720.801 177.96L718.441 181.49H720.801V177.96ZM723.905 182.48V181.62L727.265 176.8H728.645V181.49H729.575V182.48H728.645V184H727.525V182.48H723.905ZM727.575 177.96L725.215 181.49H727.575V177.96ZM733.24 177.05C733.98 177.05 734.627 177.193 735.18 177.48C735.74 177.76 736.17 178.167 736.47 178.7C736.777 179.227 736.93 179.843 736.93 180.55C736.93 181.257 736.777 181.87 736.47 182.39C736.17 182.91 735.74 183.31 735.18 183.59C734.627 183.863 733.98 184 733.24 184H730.97V177.05H733.24ZM733.24 183.07C734.053 183.07 734.677 182.85 735.11 182.41C735.543 181.97 735.76 181.35 735.76 180.55C735.76 179.743 735.543 179.113 735.11 178.66C734.677 178.207 734.053 177.98 733.24 177.98H732.11V183.07H733.24Z" fill="#4A4A4A"/>
<g opacity="0.9">
<g filter="url(#filter2_i_254_139)">
<rect x="520" y="47" width="160" height="80" rx="8" fill="white"/>
</g>
<rect x="520.15" y="47.15" width="159.7" height="79.7" rx="7.85" stroke="#BDBDBD" stroke-width="0.3"/>
</g>
<g opacity="0.9" filter="url(#filter3_i_254_139)">
<rect x="184" y="47" width="160" height="80" rx="8" fill="#F2EBCF"/>
</g>
<path d="M193.58 179.42L193.21 181.15H194.53V182.15H193L192.6 184H191.51L191.91 182.15H189.95L189.55 184H188.46L188.86 182.15H187.31V181.15H189.07L189.44 179.42H187.9V178.42H189.65L190.04 176.6H191.13L190.74 178.42H192.7L193.09 176.6H194.18L193.79 178.42H195.12V179.42H193.58ZM192.49 179.42H190.53L190.16 181.15H192.12L192.49 179.42ZM200.861 177.05V177.98H197.911V180.03H200.211V180.96H197.911V184H196.771V177.05H200.861ZM202.697 182.45C203.337 181.897 203.841 181.443 204.207 181.09C204.581 180.73 204.891 180.357 205.137 179.97C205.384 179.583 205.507 179.197 205.507 178.81C205.507 178.41 205.411 178.097 205.217 177.87C205.031 177.643 204.734 177.53 204.327 177.53C203.934 177.53 203.627 177.657 203.407 177.91C203.194 178.157 203.081 178.49 203.067 178.91H201.967C201.987 178.15 202.214 177.57 202.647 177.17C203.087 176.763 203.644 176.56 204.317 176.56C205.044 176.56 205.611 176.76 206.017 177.16C206.431 177.56 206.637 178.093 206.637 178.76C206.637 179.24 206.514 179.703 206.267 180.15C206.027 180.59 205.737 180.987 205.397 181.34C205.064 181.687 204.637 182.09 204.117 182.55L203.667 182.95H206.837V183.9H201.977V183.07L202.697 182.45ZM209.429 177.97V180.01H211.829V180.94H209.429V183.07H212.129V184H208.289V177.04H212.129V177.97H209.429ZM217.553 180.43C217.926 180.497 218.243 180.693 218.503 181.02C218.763 181.347 218.893 181.717 218.893 182.13C218.893 182.483 218.799 182.803 218.613 183.09C218.433 183.37 218.169 183.593 217.823 183.76C217.476 183.92 217.073 184 216.613 184H213.833V177.05H216.483C216.956 177.05 217.363 177.13 217.703 177.29C218.043 177.45 218.299 177.667 218.473 177.94C218.646 178.207 218.733 178.507 218.733 178.84C218.733 179.24 218.626 179.573 218.413 179.84C218.199 180.107 217.913 180.303 217.553 180.43ZM214.973 179.97H216.383C216.756 179.97 217.046 179.887 217.253 179.72C217.466 179.547 217.573 179.3 217.573 178.98C217.573 178.667 217.466 178.423 217.253 178.25C217.046 178.07 216.756 177.98 216.383 177.98H214.973V179.97ZM216.513 183.07C216.899 183.07 217.203 182.977 217.423 182.79C217.643 182.603 217.753 182.343 217.753 182.01C217.753 181.67 217.636 181.4 217.403 181.2C217.169 181 216.859 180.9 216.473 180.9H214.973V183.07H216.513ZM220.052 180.51C220.052 179.83 220.208 179.22 220.522 178.68C220.842 178.14 221.272 177.72 221.812 177.42C222.358 177.113 222.955 176.96 223.602 176.96C224.342 176.96 224.998 177.143 225.572 177.51C226.152 177.87 226.572 178.383 226.832 179.05H225.462C225.282 178.683 225.032 178.41 224.712 178.23C224.392 178.05 224.022 177.96 223.602 177.96C223.142 177.96 222.732 178.063 222.372 178.27C222.012 178.477 221.728 178.773 221.522 179.16C221.322 179.547 221.222 179.997 221.222 180.51C221.222 181.023 221.322 181.473 221.522 181.86C221.728 182.247 222.012 182.547 222.372 182.76C222.732 182.967 223.142 183.07 223.602 183.07C224.022 183.07 224.392 182.98 224.712 182.8C225.032 182.62 225.282 182.347 225.462 181.98H226.832C226.572 182.647 226.152 183.16 225.572 183.52C224.998 183.88 224.342 184.06 223.602 184.06C222.948 184.06 222.352 183.91 221.812 183.61C221.272 183.303 220.842 182.88 220.522 182.34C220.208 181.8 220.052 181.19 220.052 180.51ZM232.556 177.05V177.98H229.606V180.03H231.906V180.96H229.606V184H228.466V177.05H232.556Z" fill="#4A4A4A"/>
<g opacity="0.9" filter="url(#filter4_i_254_139)">
<rect x="688" y="47" width="160" height="80" rx="8" fill="#DE644D"/>
</g>
<path d="M26.552 155.384C26.552 156.035 26.4027 156.632 26.104 157.176C25.8053 157.709 25.3467 158.141 24.728 158.472C24.1093 158.803 23.3413 158.968 22.424 158.968H20.728V163H17.992V151.768H22.424C23.32 151.768 24.0773 151.923 24.696 152.232C25.3147 152.541 25.7787 152.968 26.088 153.512C26.3973 154.056 26.552 154.68 26.552 155.384ZM22.216 156.792C22.7387 156.792 23.128 156.669 23.384 156.424C23.64 156.179 23.768 155.832 23.768 155.384C23.768 154.936 23.64 154.589 23.384 154.344C23.128 154.099 22.7387 153.976 22.216 153.976H20.728V156.792H22.216ZM34.3444 163L32.0084 158.76H31.3524V163H28.6164V151.768H33.2084C34.0937 151.768 34.8457 151.923 35.4644 152.232C36.0937 152.541 36.563 152.968 36.8724 153.512C37.1817 154.045 37.3364 154.643 37.3364 155.304C37.3364 156.051 37.123 156.717 36.6964 157.304C36.2804 157.891 35.6617 158.307 34.8404 158.552L37.4324 163H34.3444ZM31.3524 156.824H33.0484C33.5497 156.824 33.923 156.701 34.1684 156.456C34.4244 156.211 34.5524 155.864 34.5524 155.416C34.5524 154.989 34.4244 154.653 34.1684 154.408C33.923 154.163 33.5497 154.04 33.0484 154.04H31.3524V156.824ZM42.4299 151.768V163H39.6939V151.768H42.4299ZM57.7726 151.768V163H55.0366V156.264L52.5246 163H50.3166L47.7886 156.248V163H45.0526V151.768H48.2846L51.4366 159.544L54.5566 151.768H57.7726ZM69.8361 153.928V156.232H73.4041V158.312H69.8361V160.84H73.8841V163H67.1001V161.112H63.4041L62.4441 163H59.4841L65.2281 151.768H73.8841V153.928H69.8361ZM67.1001 159.032V153.8L64.4601 159.032H67.1001ZM82.0294 163L79.6934 158.76H79.0374V163H76.3014V151.768H80.8934C81.7787 151.768 82.5307 151.923 83.1494 152.232C83.7787 152.541 84.248 152.968 84.5574 153.512C84.8667 154.045 85.0214 154.643 85.0214 155.304C85.0214 156.051 84.808 156.717 84.3814 157.304C83.9654 157.891 83.3467 158.307 82.5254 158.552L85.1174 163H82.0294ZM79.0374 156.824H80.7334C81.2347 156.824 81.608 156.701 81.8534 156.456C82.1094 156.211 82.2374 155.864 82.2374 155.416C82.2374 154.989 82.1094 154.653 81.8534 154.408C81.608 154.163 81.2347 154.04 80.7334 154.04H79.0374V156.824Z" fill="#4A4A4A"/>
<path d="M192.056 163.112C191.235 163.112 190.499 162.979 189.848 162.712C189.197 162.445 188.675 162.051 188.28 161.528C187.896 161.005 187.693 160.376 187.672 159.64H190.584C190.627 160.056 190.771 160.376 191.016 160.6C191.261 160.813 191.581 160.92 191.976 160.92C192.381 160.92 192.701 160.829 192.936 160.648C193.171 160.456 193.288 160.195 193.288 159.864C193.288 159.587 193.192 159.357 193 159.176C192.819 158.995 192.589 158.845 192.312 158.728C192.045 158.611 191.661 158.477 191.16 158.328C190.435 158.104 189.843 157.88 189.384 157.656C188.925 157.432 188.531 157.101 188.2 156.664C187.869 156.227 187.704 155.656 187.704 154.952C187.704 153.907 188.083 153.091 188.84 152.504C189.597 151.907 190.584 151.608 191.8 151.608C193.037 151.608 194.035 151.907 194.792 152.504C195.549 153.091 195.955 153.912 196.008 154.968H193.048C193.027 154.605 192.893 154.323 192.648 154.12C192.403 153.907 192.088 153.8 191.704 153.8C191.373 153.8 191.107 153.891 190.904 154.072C190.701 154.243 190.6 154.493 190.6 154.824C190.6 155.187 190.771 155.469 191.112 155.672C191.453 155.875 191.987 156.093 192.712 156.328C193.437 156.573 194.024 156.808 194.472 157.032C194.931 157.256 195.325 157.581 195.656 158.008C195.987 158.435 196.152 158.984 196.152 159.656C196.152 160.296 195.987 160.877 195.656 161.4C195.336 161.923 194.867 162.339 194.248 162.648C193.629 162.957 192.899 163.112 192.056 163.112ZM201.212 153.96V156.232H204.876V158.344H201.212V160.808H205.356V163H198.476V151.768H205.356V153.96H201.212ZM214.284 163L210.508 158.04V163H207.772V151.768H210.508V156.696L214.252 151.768H217.468L213.116 157.272L217.628 163H214.284ZM222.256 151.768V158.488C222.256 159.16 222.422 159.677 222.752 160.04C223.083 160.403 223.568 160.584 224.208 160.584C224.848 160.584 225.339 160.403 225.68 160.04C226.022 159.677 226.192 159.16 226.192 158.488V151.768H228.928V158.472C228.928 159.475 228.715 160.323 228.288 161.016C227.862 161.709 227.286 162.232 226.56 162.584C225.846 162.936 225.046 163.112 224.16 163.112C223.275 163.112 222.48 162.941 221.776 162.6C221.083 162.248 220.534 161.725 220.128 161.032C219.723 160.328 219.52 159.475 219.52 158.472V151.768H222.256ZM241.538 163H238.802L234.226 156.072V163H231.49V151.768H234.226L238.802 158.728V151.768H241.538V163ZM248.369 151.768C249.553 151.768 250.587 152.003 251.473 152.472C252.358 152.941 253.041 153.603 253.521 154.456C254.011 155.299 254.257 156.275 254.257 157.384C254.257 158.483 254.011 159.459 253.521 160.312C253.041 161.165 252.353 161.827 251.457 162.296C250.571 162.765 249.542 163 248.369 163H244.161V151.768H248.369ZM248.193 160.632C249.227 160.632 250.033 160.349 250.609 159.784C251.185 159.219 251.473 158.419 251.473 157.384C251.473 156.349 251.185 155.544 250.609 154.968C250.033 154.392 249.227 154.104 248.193 154.104H246.897V160.632H248.193ZM265.882 153.928V156.232H269.45V158.312H265.882V160.84H269.93V163H263.146V161.112H259.45L258.49 163H255.53L261.274 151.768H269.93V153.928H265.882ZM263.146 159.032V153.8L260.506 159.032H263.146ZM278.075 163L275.739 158.76H275.083V163H272.347V151.768H276.939C277.824 151.768 278.576 151.923 279.195 152.232C279.824 152.541 280.294 152.968 280.603 153.512C280.912 154.045 281.067 154.643 281.067 155.304C281.067 156.051 280.854 156.717 280.427 157.304C280.011 157.891 279.392 158.307 278.571 158.552L281.163 163H278.075ZM275.083 156.824H276.779C277.28 156.824 277.654 156.701 277.899 156.456C278.155 156.211 278.283 155.864 278.283 155.416C278.283 154.989 278.155 154.653 277.899 154.408C277.654 154.163 277.28 154.04 276.779 154.04H275.083V156.824Z" fill="#4A4A4A"/>
<path d="M357.056 163.112C356.235 163.112 355.499 162.979 354.848 162.712C354.197 162.445 353.675 162.051 353.28 161.528C352.896 161.005 352.693 160.376 352.672 159.64H355.584C355.627 160.056 355.771 160.376 356.016 160.6C356.261 160.813 356.581 160.92 356.976 160.92C357.381 160.92 357.701 160.829 357.936 160.648C358.171 160.456 358.288 160.195 358.288 159.864C358.288 159.587 358.192 159.357 358 159.176C357.819 158.995 357.589 158.845 357.312 158.728C357.045 158.611 356.661 158.477 356.16 158.328C355.435 158.104 354.843 157.88 354.384 157.656C353.925 157.432 353.531 157.101 353.2 156.664C352.869 156.227 352.704 155.656 352.704 154.952C352.704 153.907 353.083 153.091 353.84 152.504C354.597 151.907 355.584 151.608 356.8 151.608C358.037 151.608 359.035 151.907 359.792 152.504C360.549 153.091 360.955 153.912 361.008 154.968H358.048C358.027 154.605 357.893 154.323 357.648 154.12C357.403 153.907 357.088 153.8 356.704 153.8C356.373 153.8 356.107 153.891 355.904 154.072C355.701 154.243 355.6 154.493 355.6 154.824C355.6 155.187 355.771 155.469 356.112 155.672C356.453 155.875 356.987 156.093 357.712 156.328C358.437 156.573 359.024 156.808 359.472 157.032C359.931 157.256 360.325 157.581 360.656 158.008C360.987 158.435 361.152 158.984 361.152 159.656C361.152 160.296 360.987 160.877 360.656 161.4C360.336 161.923 359.867 162.339 359.248 162.648C358.629 162.957 357.899 163.112 357.056 163.112ZM374.02 151.768L370.036 163H366.612L362.628 151.768H365.54L368.324 160.248L371.124 151.768H374.02ZM382.795 161.016H378.603L377.931 163H375.067L379.131 151.768H382.299L386.363 163H383.467L382.795 161.016ZM382.091 158.904L380.699 154.792L379.323 158.904H382.091ZM393.968 163L391.632 158.76H390.976V163H388.24V151.768H392.832C393.717 151.768 394.469 151.923 395.088 152.232C395.717 152.541 396.187 152.968 396.496 153.512C396.805 154.045 396.96 154.643 396.96 155.304C396.96 156.051 396.747 156.717 396.32 157.304C395.904 157.891 395.285 158.307 394.464 158.552L397.056 163H393.968ZM390.976 156.824H392.672C393.173 156.824 393.547 156.701 393.792 156.456C394.048 156.211 394.176 155.864 394.176 155.416C394.176 154.989 394.048 154.653 393.792 154.408C393.547 154.163 393.173 154.04 392.672 154.04H390.976V156.824ZM407.398 151.768V153.96H404.422V163H401.686V153.96H398.71V151.768H407.398Z" fill="#4A4A4A"/>
<path d="M530.72 151.768V163H527.984V158.376H523.728V163H520.992V151.768H523.728V156.168H527.984V151.768H530.72ZM543.879 151.768L539.895 163H536.471L532.487 151.768H535.399L538.183 160.248L540.983 151.768H543.879ZM548.399 151.768V163H545.663V151.768H548.399ZM559.101 151.768V153.96H556.125V163H553.389V153.96H550.413V151.768H559.101Z" fill="#4A4A4A"/>
<path d="M695.984 161.016H691.792L691.12 163H688.256L692.32 151.768H695.488L699.552 163H696.656L695.984 161.016ZM695.28 158.904L693.888 154.792L692.512 158.904H695.28ZM707.941 163L704.165 158.04V163H701.429V151.768H704.165V156.696L707.909 151.768H711.125L706.773 157.272L711.285 163H707.941ZM717.289 163.112C716.468 163.112 715.732 162.979 715.081 162.712C714.43 162.445 713.908 162.051 713.513 161.528C713.129 161.005 712.926 160.376 712.905 159.64H715.817C715.86 160.056 716.004 160.376 716.249 160.6C716.494 160.813 716.814 160.92 717.209 160.92C717.614 160.92 717.934 160.829 718.169 160.648C718.404 160.456 718.521 160.195 718.521 159.864C718.521 159.587 718.425 159.357 718.233 159.176C718.052 158.995 717.822 158.845 717.545 158.728C717.278 158.611 716.894 158.477 716.393 158.328C715.668 158.104 715.076 157.88 714.617 157.656C714.158 157.432 713.764 157.101 713.433 156.664C713.102 156.227 712.937 155.656 712.937 154.952C712.937 153.907 713.316 153.091 714.073 152.504C714.83 151.907 715.817 151.608 717.033 151.608C718.27 151.608 719.268 151.907 720.025 152.504C720.782 153.091 721.188 153.912 721.241 154.968H718.281C718.26 154.605 718.126 154.323 717.881 154.12C717.636 153.907 717.321 153.8 716.937 153.8C716.606 153.8 716.34 153.891 716.137 154.072C715.934 154.243 715.833 154.493 715.833 154.824C715.833 155.187 716.004 155.469 716.345 155.672C716.686 155.875 717.22 156.093 717.945 156.328C718.67 156.573 719.257 156.808 719.705 157.032C720.164 157.256 720.558 157.581 720.889 158.008C721.22 158.435 721.385 158.984 721.385 159.656C721.385 160.296 721.22 160.877 720.889 161.4C720.569 161.923 720.1 162.339 719.481 162.648C718.862 162.957 718.132 163.112 717.289 163.112ZM726.445 153.96V156.232H730.109V158.344H726.445V160.808H730.589V163H723.709V151.768H730.589V153.96H726.445ZM743.053 163H740.317L735.741 156.072V163H733.005V151.768H735.741L740.317 158.728V151.768H743.053V163ZM753.756 151.768V153.96H750.78V163H748.044V153.96H745.068V151.768H753.756Z" fill="#4A4A4A"/>
<defs>
<filter id="filter0_i_254_139" x="16" y="47" width="160" height="80" filterUnits="userSpaceOnUse" color-interpolation-filters="sRGB">
<feFlood flood-opacity="0" result="BackgroundImageFix"/>
<feBlend mode="normal" in="SourceGraphic" in2="BackgroundImageFix" result="shape"/>
<feColorMatrix in="SourceAlpha" type="matrix" values="0 0 0 0 0 0 0 0 0 0 0 0 0 0 0 0 0 0 127 0" result="hardAlpha"/>
<feOffset/>
<feGaussianBlur stdDeviation="6"/>
<feComposite in2="hardAlpha" operator="arithmetic" k2="-1" k3="1"/>
<feColorMatrix type="matrix" values="0 0 0 0 0 0 0 0 0 0 0 0 0 0 0 0 0 0 0.05 0"/>
<feBlend mode="normal" in2="shape" result="effect1_innerShadow_254_139"/>
</filter>
<filter id="filter1_i_254_139" x="352" y="47" width="160" height="80" filterUnits="userSpaceOnUse" color-interpolation-filters="sRGB">
<feFlood flood-opacity="0" result="BackgroundImageFix"/>
<feBlend mode="normal" in="SourceGraphic" in2="BackgroundImageFix" result="shape"/>
<feColorMatrix in="SourceAlpha" type="matrix" values="0 0 0 0 0 0 0 0 0 0 0 0 0 0 0 0 0 0 127 0" result="hardAlpha"/>
<feOffset/>
<feGaussianBlur stdDeviation="6"/>
<feComposite in2="hardAlpha" operator="arithmetic" k2="-1" k3="1"/>
<feColorMatrix type="matrix" values="0 0 0 0 0 0 0 0 0 0 0 0 0 0 0 0 0 0 0.05 0"/>
<feBlend mode="normal" in2="shape" result="effect1_innerShadow_254_139"/>
</filter>
<filter id="filter2_i_254_139" x="520" y="47" width="160" height="80" filterUnits="userSpaceOnUse" color-interpolation-filters="sRGB">
<feFlood flood-opacity="0" result="BackgroundImageFix"/>
<feBlend mode="normal" in="SourceGraphic" in2="BackgroundImageFix" result="shape"/>
<feColorMatrix in="SourceAlpha" type="matrix" values="0 0 0 0 0 0 0 0 0 0 0 0 0 0 0 0 0 0 127 0" result="hardAlpha"/>
<feOffset/>
<feGaussianBlur stdDeviation="6"/>
<feComposite in2="hardAlpha" operator="arithmetic" k2="-1" k3="1"/>
<feColorMatrix type="matrix" values="0 0 0 0 0 0 0 0 0 0 0 0 0 0 0 0 0 0 0.05 0"/>
<feBlend mode="normal" in2="shape" result="effect1_innerShadow_254_139"/>
</filter>
<filter id="filter3_i_254_139" x="184" y="47" width="160" height="80" filterUnits="userSpaceOnUse" color-interpolation-filters="sRGB">
<feFlood flood-opacity="0" result="BackgroundImageFix"/>
<feBlend mode="normal" in="SourceGraphic" in2="BackgroundImageFix" result="shape"/>
<feColorMatrix in="SourceAlpha" type="matrix" values="0 0 0 0 0 0 0 0 0 0 0 0 0 0 0 0 0 0 127 0" result="hardAlpha"/>
<feOffset/>
<feGaussianBlur stdDeviation="6"/>
<feComposite in2="hardAlpha" operator="arithmetic" k2="-1" k3="1"/>
<feColorMatrix type="matrix" values="0 0 0 0 0 0 0 0 0 0 0 0 0 0 0 0 0 0 0.05 0"/>
<feBlend mode="normal" in2="shape" result="effect1_innerShadow_254_139"/>
</filter>
<filter id="filter4_i_254_139" x="688" y="47" width="160" height="80" filterUnits="userSpaceOnUse" color-interpolation-filters="sRGB">
<feFlood flood-opacity="0" result="BackgroundImageFix"/>
<feBlend mode="normal" in="SourceGraphic" in2="BackgroundImageFix" result="shape"/>
<feColorMatrix in="SourceAlpha" type="matrix" values="0 0 0 0 0 0 0 0 0 0 0 0 0 0 0 0 0 0 127 0" result="hardAlpha"/>
<feOffset/>
<feGaussianBlur stdDeviation="6"/>
<feComposite in2="hardAlpha" operator="arithmetic" k2="-1" k3="1"/>
<feColorMatrix type="matrix" values="0 0 0 0 0 0 0 0 0 0 0 0 0 0 0 0 0 0 0.05 0"/>
<feBlend mode="normal" in2="shape" result="effect1_innerShadow_254_139"/>
</filter>
</defs>
</svg>
