<svg width="864" height="208" viewBox="0 0 864 208" fill="none" xmlns="http://www.w3.org/2000/svg">
<rect width="864" height="208" fill="white"/>
<g opacity="0.9" filter="url(#filter0_i_270_42)">
<rect x="16" y="33" width="160" height="80" rx="8" fill="#485F45"/>
</g>
<path d="M22.58 165.42L22.21 167.15H23.53V168.15H22L21.6 170H20.51L20.91 168.15H18.95L18.55 170H17.46L17.86 168.15H16.31V167.15H18.07L18.44 165.42H16.9V164.42H18.65L19.04 162.6H20.13L19.74 164.42H21.7L22.09 162.6H23.18L22.79 164.42H24.12V165.42H22.58ZM21.49 165.42H19.53L19.16 167.15H21.12L21.49 165.42ZM25.4807 168.48V167.62L28.8407 162.8H30.2207V167.49H31.1507V168.48H30.2207V170H29.1007V168.48H25.4807ZM29.1507 163.96L26.7907 167.49H29.1507V163.96ZM33.6253 166.19C32.932 165.843 32.5853 165.297 32.5853 164.55C32.5853 164.19 32.6753 163.86 32.8553 163.56C33.0353 163.26 33.3053 163.023 33.6653 162.85C34.0253 162.67 34.4653 162.58 34.9853 162.58C35.4986 162.58 35.9353 162.67 36.2953 162.85C36.662 163.023 36.9353 163.26 37.1153 163.56C37.2953 163.86 37.3853 164.19 37.3853 164.55C37.3853 164.923 37.2886 165.253 37.0953 165.54C36.9086 165.82 36.6586 166.037 36.3453 166.19C36.7253 166.33 37.0253 166.56 37.2453 166.88C37.4653 167.193 37.5753 167.563 37.5753 167.99C37.5753 168.423 37.4653 168.807 37.2453 169.14C37.0253 169.473 36.7186 169.73 36.3253 169.91C35.932 170.09 35.4853 170.18 34.9853 170.18C34.4853 170.18 34.0386 170.09 33.6453 169.91C33.2586 169.73 32.9553 169.473 32.7353 169.14C32.5153 168.807 32.4053 168.423 32.4053 167.99C32.4053 167.557 32.5153 167.183 32.7353 166.87C32.9553 166.557 33.252 166.33 33.6253 166.19ZM36.2953 164.69C36.2953 164.317 36.1786 164.03 35.9453 163.83C35.712 163.63 35.392 163.53 34.9853 163.53C34.5853 163.53 34.2686 163.63 34.0353 163.83C33.802 164.03 33.6853 164.32 33.6853 164.7C33.6853 165.033 33.8053 165.307 34.0453 165.52C34.292 165.727 34.6053 165.83 34.9853 165.83C35.3653 165.83 35.6786 165.723 35.9253 165.51C36.172 165.297 36.2953 165.023 36.2953 164.69ZM34.9853 166.69C34.5453 166.69 34.1853 166.8 33.9053 167.02C33.632 167.233 33.4953 167.543 33.4953 167.95C33.4953 168.33 33.6286 168.64 33.8953 168.88C34.162 169.113 34.5253 169.23 34.9853 169.23C35.4386 169.23 35.7953 169.11 36.0553 168.87C36.322 168.63 36.4553 168.323 36.4553 167.95C36.4553 167.55 36.3186 167.24 36.0453 167.02C35.7786 166.8 35.4253 166.69 34.9853 166.69ZM43.7723 163.69H40.4223V165.68C40.5623 165.493 40.7689 165.337 41.0423 165.21C41.3223 165.083 41.6189 165.02 41.9323 165.02C42.4923 165.02 42.9456 165.14 43.2923 165.38C43.6456 165.62 43.8956 165.923 44.0423 166.29C44.1956 166.657 44.2723 167.043 44.2723 167.45C44.2723 167.943 44.1756 168.383 43.9823 168.77C43.7956 169.15 43.5123 169.45 43.1323 169.67C42.7589 169.89 42.2989 170 41.7523 170C41.0256 170 40.4423 169.82 40.0023 169.46C39.5623 169.1 39.2989 168.623 39.2123 168.03H40.3223C40.3956 168.343 40.5589 168.593 40.8123 168.78C41.0656 168.96 41.3823 169.05 41.7623 169.05C42.2356 169.05 42.5889 168.907 42.8223 168.62C43.0623 168.333 43.1823 167.953 43.1823 167.48C43.1823 167 43.0623 166.633 42.8223 166.38C42.5823 166.12 42.2289 165.99 41.7623 165.99C41.4356 165.99 41.1589 166.073 40.9323 166.24C40.7123 166.4 40.5523 166.62 40.4523 166.9H39.3723V162.69H43.7723V163.69ZM49.999 163.05V163.98H47.049V166.03H49.349V166.96H47.049V170H45.909V163.05H49.999ZM51.0655 168.48V167.62L54.4255 162.8H55.8055V167.49H56.7355V168.48H55.8055V170H54.6855V168.48H51.0655ZM54.7355 163.96L52.3755 167.49H54.7355V163.96ZM62.6801 163.69H59.3301V165.68C59.4701 165.493 59.6767 165.337 59.9501 165.21C60.2301 165.083 60.5267 165.02 60.8401 165.02C61.4001 165.02 61.8534 165.14 62.2001 165.38C62.5534 165.62 62.8034 165.923 62.9501 166.29C63.1034 166.657 63.1801 167.043 63.1801 167.45C63.1801 167.943 63.0834 168.383 62.8901 168.77C62.7034 169.15 62.4201 169.45 62.0401 169.67C61.6667 169.89 61.2067 170 60.6601 170C59.9334 170 59.3501 169.82 58.9101 169.46C58.4701 169.1 58.2067 168.623 58.1201 168.03H59.2301C59.3034 168.343 59.4667 168.593 59.7201 168.78C59.9734 168.96 60.2901 169.05 60.6701 169.05C61.1434 169.05 61.4967 168.907 61.7301 168.62C61.9701 168.333 62.0901 167.953 62.0901 167.48C62.0901 167 61.9701 166.633 61.7301 166.38C61.4901 166.12 61.1367 165.99 60.6701 165.99C60.3434 165.99 60.0667 166.073 59.8401 166.24C59.6201 166.4 59.4601 166.62 59.3601 166.9H58.2801V162.69H62.6801V163.69Z" fill="#485F45"/>
<path d="M358.58 165.42L358.21 167.15H359.53V168.15H358L357.6 170H356.51L356.91 168.15H354.95L354.55 170H353.46L353.86 168.15H352.31V167.15H354.07L354.44 165.42H352.9V164.42H354.65L355.04 162.6H356.13L355.74 164.42H357.7L358.09 162.6H359.18L358.79 164.42H360.12V165.42H358.58ZM357.49 165.42H355.53L355.16 167.15H357.12L357.49 165.42ZM365.861 163.05V163.98H362.911V166.03H365.211V166.96H362.911V170H361.771V163.05H365.861ZM371.307 163.05V163.98H368.357V166.03H370.657V166.96H368.357V170H367.217V163.05H371.307ZM376.754 163.05V163.98H373.804V166.03H376.104V166.96H373.804V170H372.664V163.05H376.754ZM382.2 163.05V163.98H379.25V166.03H381.55V166.96H379.25V170H378.11V163.05H382.2ZM387.647 163.05V163.98H384.697V166.03H386.997V166.96H384.697V170H383.557V163.05H387.647ZM393.093 163.05V163.98H390.143V166.03H392.443V166.96H390.143V170H389.003V163.05H393.093Z" fill="#4A4A4A"/>
<g opacity="0.9">
<g filter="url(#filter1_i_270_42)">
<rect x="352" y="33" width="160" height="80" rx="8" fill="white"/>
</g>
<rect x="352.15" y="33.15" width="159.7" height="79.7" rx="7.85" stroke="#BDBDBD" stroke-width="0.3"/>
</g>
<g opacity="0.9" filter="url(#filter2_i_270_42)">
<rect x="184" y="33" width="160" height="80" rx="8" fill="#ECCB91"/>
</g>
<path d="M193.58 165.42L193.21 167.15H194.53V168.15H193L192.6 170H191.51L191.91 168.15H189.95L189.55 170H188.46L188.86 168.15H187.31V167.15H189.07L189.44 165.42H187.9V164.42H189.65L190.04 162.6H191.13L190.74 164.42H192.7L193.09 162.6H194.18L193.79 164.42H195.12V165.42H193.58ZM192.49 165.42H190.53L190.16 167.15H192.12L192.49 165.42ZM197.911 163.97V166.01H200.311V166.94H197.911V169.07H200.611V170H196.771V163.04H200.611V163.97H197.911ZM201.935 166.51C201.935 165.83 202.092 165.22 202.405 164.68C202.725 164.14 203.155 163.72 203.695 163.42C204.242 163.113 204.838 162.96 205.485 162.96C206.225 162.96 206.882 163.143 207.455 163.51C208.035 163.87 208.455 164.383 208.715 165.05H207.345C207.165 164.683 206.915 164.41 206.595 164.23C206.275 164.05 205.905 163.96 205.485 163.96C205.025 163.96 204.615 164.063 204.255 164.27C203.895 164.477 203.612 164.773 203.405 165.16C203.205 165.547 203.105 165.997 203.105 166.51C203.105 167.023 203.205 167.473 203.405 167.86C203.612 168.247 203.895 168.547 204.255 168.76C204.615 168.967 205.025 169.07 205.485 169.07C205.905 169.07 206.275 168.98 206.595 168.8C206.915 168.62 207.165 168.347 207.345 167.98H208.715C208.455 168.647 208.035 169.16 207.455 169.52C206.882 169.88 206.225 170.06 205.485 170.06C204.832 170.06 204.235 169.91 203.695 169.61C203.155 169.303 202.725 168.88 202.405 168.34C202.092 167.8 201.935 167.19 201.935 166.51ZM209.969 166.51C209.969 165.83 210.126 165.22 210.439 164.68C210.759 164.14 211.189 163.72 211.729 163.42C212.276 163.113 212.873 162.96 213.519 162.96C214.259 162.96 214.916 163.143 215.489 163.51C216.069 163.87 216.489 164.383 216.749 165.05H215.379C215.199 164.683 214.949 164.41 214.629 164.23C214.309 164.05 213.939 163.96 213.519 163.96C213.059 163.96 212.649 164.063 212.289 164.27C211.929 164.477 211.646 164.773 211.439 165.16C211.239 165.547 211.139 165.997 211.139 166.51C211.139 167.023 211.239 167.473 211.439 167.86C211.646 168.247 211.929 168.547 212.289 168.76C212.649 168.967 213.059 169.07 213.519 169.07C213.939 169.07 214.309 168.98 214.629 168.8C214.949 168.62 215.199 168.347 215.379 167.98H216.749C216.489 168.647 216.069 169.16 215.489 169.52C214.916 169.88 214.259 170.06 213.519 170.06C212.866 170.06 212.269 169.91 211.729 169.61C211.189 169.303 210.759 168.88 210.439 168.34C210.126 167.8 209.969 167.19 209.969 166.51ZM222.104 166.43C222.477 166.497 222.794 166.693 223.054 167.02C223.314 167.347 223.444 167.717 223.444 168.13C223.444 168.483 223.35 168.803 223.164 169.09C222.984 169.37 222.72 169.593 222.374 169.76C222.027 169.92 221.624 170 221.164 170H218.384V163.05H221.034C221.507 163.05 221.914 163.13 222.254 163.29C222.594 163.45 222.85 163.667 223.024 163.94C223.197 164.207 223.284 164.507 223.284 164.84C223.284 165.24 223.177 165.573 222.964 165.84C222.75 166.107 222.464 166.303 222.104 166.43ZM219.524 165.97H220.934C221.307 165.97 221.597 165.887 221.804 165.72C222.017 165.547 222.124 165.3 222.124 164.98C222.124 164.667 222.017 164.423 221.804 164.25C221.597 164.07 221.307 163.98 220.934 163.98H219.524V165.97ZM221.064 169.07C221.45 169.07 221.754 168.977 221.974 168.79C222.194 168.603 222.304 168.343 222.304 168.01C222.304 167.67 222.187 167.4 221.954 167.2C221.72 167 221.41 166.9 221.024 166.9H219.524V169.07H221.064ZM226.252 168.02C226.319 168.353 226.462 168.607 226.682 168.78C226.902 168.953 227.199 169.04 227.572 169.04C228.046 169.04 228.392 168.853 228.612 168.48C228.832 168.107 228.942 167.47 228.942 166.57C228.782 166.797 228.556 166.973 228.262 167.1C227.976 167.22 227.662 167.28 227.322 167.28C226.889 167.28 226.496 167.193 226.142 167.02C225.789 166.84 225.509 166.577 225.302 166.23C225.102 165.877 225.002 165.45 225.002 164.95C225.002 164.217 225.216 163.633 225.642 163.2C226.076 162.76 226.669 162.54 227.422 162.54C228.329 162.54 228.972 162.843 229.352 163.45C229.739 164.05 229.932 164.973 229.932 166.22C229.932 167.08 229.859 167.783 229.712 168.33C229.572 168.877 229.326 169.29 228.972 169.57C228.619 169.85 228.129 169.99 227.502 169.99C226.789 169.99 226.239 169.803 225.852 169.43C225.466 169.057 225.249 168.587 225.202 168.02H226.252ZM227.522 166.32C227.922 166.32 228.236 166.197 228.462 165.95C228.696 165.697 228.812 165.363 228.812 164.95C228.812 164.49 228.689 164.133 228.442 163.88C228.202 163.62 227.872 163.49 227.452 163.49C227.032 163.49 226.699 163.623 226.452 163.89C226.212 164.15 226.092 164.493 226.092 164.92C226.092 165.327 226.209 165.663 226.442 165.93C226.682 166.19 227.042 166.32 227.522 166.32ZM231.33 163.75V162.71H233.41V170H232.26V163.75H231.33Z" fill="#4A4A4A"/>
<path d="M26.552 141.384C26.552 142.035 26.4027 142.632 26.104 143.176C25.8053 143.709 25.3467 144.141 24.728 144.472C24.1093 144.803 23.3413 144.968 22.424 144.968H20.728V149H17.992V137.768H22.424C23.32 137.768 24.0773 137.923 24.696 138.232C25.3147 138.541 25.7787 138.968 26.088 139.512C26.3973 140.056 26.552 140.68 26.552 141.384ZM22.216 142.792C22.7387 142.792 23.128 142.669 23.384 142.424C23.64 142.179 23.768 141.832 23.768 141.384C23.768 140.936 23.64 140.589 23.384 140.344C23.128 140.099 22.7387 139.976 22.216 139.976H20.728V142.792H22.216ZM34.3444 149L32.0084 144.76H31.3524V149H28.6164V137.768H33.2084C34.0937 137.768 34.8457 137.923 35.4644 138.232C36.0937 138.541 36.563 138.968 36.8724 139.512C37.1817 140.045 37.3364 140.643 37.3364 141.304C37.3364 142.051 37.123 142.717 36.6964 143.304C36.2804 143.891 35.6617 144.307 34.8404 144.552L37.4324 149H34.3444ZM31.3524 142.824H33.0484C33.5497 142.824 33.923 142.701 34.1684 142.456C34.4244 142.211 34.5524 141.864 34.5524 141.416C34.5524 140.989 34.4244 140.653 34.1684 140.408C33.923 140.163 33.5497 140.04 33.0484 140.04H31.3524V142.824ZM42.4299 137.768V149H39.6939V137.768H42.4299ZM57.7726 137.768V149H55.0366V142.264L52.5246 149H50.3166L47.7886 142.248V149H45.0526V137.768H48.2846L51.4366 145.544L54.5566 137.768H57.7726ZM69.8361 139.928V142.232H73.4041V144.312H69.8361V146.84H73.8841V149H67.1001V147.112H63.4041L62.4441 149H59.4841L65.2281 137.768H73.8841V139.928H69.8361ZM67.1001 145.032V139.8L64.4601 145.032H67.1001ZM82.0294 149L79.6934 144.76H79.0374V149H76.3014V137.768H80.8934C81.7787 137.768 82.5307 137.923 83.1494 138.232C83.7787 138.541 84.248 138.968 84.5574 139.512C84.8667 140.045 85.0214 140.643 85.0214 141.304C85.0214 142.051 84.808 142.717 84.3814 143.304C83.9654 143.891 83.3467 144.307 82.5254 144.552L85.1174 149H82.0294ZM79.0374 142.824H80.7334C81.2347 142.824 81.608 142.701 81.8534 142.456C82.1094 142.211 82.2374 141.864 82.2374 141.416C82.2374 140.989 82.1094 140.653 81.8534 140.408C81.608 140.163 81.2347 140.04 80.7334 140.04H79.0374V142.824Z" fill="#4A4A4A"/>
<path d="M192.056 149.112C191.235 149.112 190.499 148.979 189.848 148.712C189.197 148.445 188.675 148.051 188.28 147.528C187.896 147.005 187.693 146.376 187.672 145.64H190.584C190.627 146.056 190.771 146.376 191.016 146.6C191.261 146.813 191.581 146.92 191.976 146.92C192.381 146.92 192.701 146.829 192.936 146.648C193.171 146.456 193.288 146.195 193.288 145.864C193.288 145.587 193.192 145.357 193 145.176C192.819 144.995 192.589 144.845 192.312 144.728C192.045 144.611 191.661 144.477 191.16 144.328C190.435 144.104 189.843 143.88 189.384 143.656C188.925 143.432 188.531 143.101 188.2 142.664C187.869 142.227 187.704 141.656 187.704 140.952C187.704 139.907 188.083 139.091 188.84 138.504C189.597 137.907 190.584 137.608 191.8 137.608C193.037 137.608 194.035 137.907 194.792 138.504C195.549 139.091 195.955 139.912 196.008 140.968H193.048C193.027 140.605 192.893 140.323 192.648 140.12C192.403 139.907 192.088 139.8 191.704 139.8C191.373 139.8 191.107 139.891 190.904 140.072C190.701 140.243 190.6 140.493 190.6 140.824C190.6 141.187 190.771 141.469 191.112 141.672C191.453 141.875 191.987 142.093 192.712 142.328C193.437 142.573 194.024 142.808 194.472 143.032C194.931 143.256 195.325 143.581 195.656 144.008C195.987 144.435 196.152 144.984 196.152 145.656C196.152 146.296 195.987 146.877 195.656 147.4C195.336 147.923 194.867 148.339 194.248 148.648C193.629 148.957 192.899 149.112 192.056 149.112ZM201.212 139.96V142.232H204.876V144.344H201.212V146.808H205.356V149H198.476V137.768H205.356V139.96H201.212ZM214.284 149L210.508 144.04V149H207.772V137.768H210.508V142.696L214.252 137.768H217.468L213.116 143.272L217.628 149H214.284ZM222.256 137.768V144.488C222.256 145.16 222.422 145.677 222.752 146.04C223.083 146.403 223.568 146.584 224.208 146.584C224.848 146.584 225.339 146.403 225.68 146.04C226.022 145.677 226.192 145.16 226.192 144.488V137.768H228.928V144.472C228.928 145.475 228.715 146.323 228.288 147.016C227.862 147.709 227.286 148.232 226.56 148.584C225.846 148.936 225.046 149.112 224.16 149.112C223.275 149.112 222.48 148.941 221.776 148.6C221.083 148.248 220.534 147.725 220.128 147.032C219.723 146.328 219.52 145.475 219.52 144.472V137.768H222.256ZM241.538 149H238.802L234.226 142.072V149H231.49V137.768H234.226L238.802 144.728V137.768H241.538V149ZM248.369 137.768C249.553 137.768 250.587 138.003 251.473 138.472C252.358 138.941 253.041 139.603 253.521 140.456C254.011 141.299 254.257 142.275 254.257 143.384C254.257 144.483 254.011 145.459 253.521 146.312C253.041 147.165 252.353 147.827 251.457 148.296C250.571 148.765 249.542 149 248.369 149H244.161V137.768H248.369ZM248.193 146.632C249.227 146.632 250.033 146.349 250.609 145.784C251.185 145.219 251.473 144.419 251.473 143.384C251.473 142.349 251.185 141.544 250.609 140.968C250.033 140.392 249.227 140.104 248.193 140.104H246.897V146.632H248.193ZM265.882 139.928V142.232H269.45V144.312H265.882V146.84H269.93V149H263.146V147.112H259.45L258.49 149H255.53L261.274 137.768H269.93V139.928H265.882ZM263.146 145.032V139.8L260.506 145.032H263.146ZM278.075 149L275.739 144.76H275.083V149H272.347V137.768H276.939C277.824 137.768 278.576 137.923 279.195 138.232C279.824 138.541 280.294 138.968 280.603 139.512C280.912 140.045 281.067 140.643 281.067 141.304C281.067 142.051 280.854 142.717 280.427 143.304C280.011 143.891 279.392 144.307 278.571 144.552L281.163 149H278.075ZM275.083 142.824H276.779C277.28 142.824 277.654 142.701 277.899 142.456C278.155 142.211 278.283 141.864 278.283 141.416C278.283 140.989 278.155 140.653 277.899 140.408C277.654 140.163 277.28 140.04 276.779 140.04H275.083V142.824Z" fill="#4A4A4A"/>
<path d="M362.72 137.768V149H359.984V144.376H355.728V149H352.992V137.768H355.728V142.168H359.984V137.768H362.72ZM375.879 137.768L371.895 149H368.471L364.487 137.768H367.399L370.183 146.248L372.983 137.768H375.879ZM380.399 137.768V149H377.663V137.768H380.399ZM391.101 137.768V139.96H388.125V149H385.389V139.96H382.413V137.768H391.101Z" fill="#4A4A4A"/>
<g opacity="0.9" filter="url(#filter3_i_270_42)">
<rect x="520" y="33" width="160" height="80" rx="8" fill="black"/>
</g>
<path d="M526.58 165.42L526.21 167.15H527.53V168.15H526L525.6 170H524.51L524.91 168.15H522.95L522.55 170H521.46L521.86 168.15H520.31V167.15H522.07L522.44 165.42H520.9V164.42H522.65L523.04 162.6H524.13L523.74 164.42H525.7L526.09 162.6H527.18L526.79 164.42H528.12V165.42H526.58ZM525.49 165.42H523.53L523.16 167.15H525.12L525.49 165.42ZM529.621 166.26C529.621 165.107 529.814 164.207 530.201 163.56C530.594 162.907 531.267 162.58 532.221 162.58C533.174 162.58 533.844 162.907 534.231 163.56C534.624 164.207 534.821 165.107 534.821 166.26C534.821 167.427 534.624 168.34 534.231 169C533.844 169.653 533.174 169.98 532.221 169.98C531.267 169.98 530.594 169.653 530.201 169C529.814 168.34 529.621 167.427 529.621 166.26ZM533.701 166.26C533.701 165.72 533.664 165.263 533.591 164.89C533.524 164.517 533.384 164.213 533.171 163.98C532.957 163.74 532.641 163.62 532.221 163.62C531.801 163.62 531.484 163.74 531.271 163.98C531.057 164.213 530.914 164.517 530.841 164.89C530.774 165.263 530.741 165.72 530.741 166.26C530.741 166.82 530.774 167.29 530.841 167.67C530.907 168.05 531.047 168.357 531.261 168.59C531.481 168.823 531.801 168.94 532.221 168.94C532.641 168.94 532.957 168.823 533.171 168.59C533.391 168.357 533.534 168.05 533.601 167.67C533.667 167.29 533.701 166.82 533.701 166.26ZM536.327 166.26C536.327 165.107 536.52 164.207 536.907 163.56C537.3 162.907 537.974 162.58 538.927 162.58C539.88 162.58 540.55 162.907 540.937 163.56C541.33 164.207 541.527 165.107 541.527 166.26C541.527 167.427 541.33 168.34 540.937 169C540.55 169.653 539.88 169.98 538.927 169.98C537.974 169.98 537.3 169.653 536.907 169C536.52 168.34 536.327 167.427 536.327 166.26ZM540.407 166.26C540.407 165.72 540.37 165.263 540.297 164.89C540.23 164.517 540.09 164.213 539.877 163.98C539.664 163.74 539.347 163.62 538.927 163.62C538.507 163.62 538.19 163.74 537.977 163.98C537.764 164.213 537.62 164.517 537.547 164.89C537.48 165.263 537.447 165.72 537.447 166.26C537.447 166.82 537.48 167.29 537.547 167.67C537.614 168.05 537.754 168.357 537.967 168.59C538.187 168.823 538.507 168.94 538.927 168.94C539.347 168.94 539.664 168.823 539.877 168.59C540.097 168.357 540.24 168.05 540.307 167.67C540.374 167.29 540.407 166.82 540.407 166.26ZM543.033 166.26C543.033 165.107 543.227 164.207 543.613 163.56C544.007 162.907 544.68 162.58 545.633 162.58C546.587 162.58 547.257 162.907 547.643 163.56C548.037 164.207 548.233 165.107 548.233 166.26C548.233 167.427 548.037 168.34 547.643 169C547.257 169.653 546.587 169.98 545.633 169.98C544.68 169.98 544.007 169.653 543.613 169C543.227 168.34 543.033 167.427 543.033 166.26ZM547.113 166.26C547.113 165.72 547.077 165.263 547.003 164.89C546.937 164.517 546.797 164.213 546.583 163.98C546.37 163.74 546.053 163.62 545.633 163.62C545.213 163.62 544.897 163.74 544.683 163.98C544.47 164.213 544.327 164.517 544.253 164.89C544.187 165.263 544.153 165.72 544.153 166.26C544.153 166.82 544.187 167.29 544.253 167.67C544.32 168.05 544.46 168.357 544.673 168.59C544.893 168.823 545.213 168.94 545.633 168.94C546.053 168.94 546.37 168.823 546.583 168.59C546.803 168.357 546.947 168.05 547.013 167.67C547.08 167.29 547.113 166.82 547.113 166.26ZM549.739 166.26C549.739 165.107 549.933 164.207 550.319 163.56C550.713 162.907 551.386 162.58 552.339 162.58C553.293 162.58 553.963 162.907 554.349 163.56C554.743 164.207 554.939 165.107 554.939 166.26C554.939 167.427 554.743 168.34 554.349 169C553.963 169.653 553.293 169.98 552.339 169.98C551.386 169.98 550.713 169.653 550.319 169C549.933 168.34 549.739 167.427 549.739 166.26ZM553.819 166.26C553.819 165.72 553.783 165.263 553.709 164.89C553.643 164.517 553.503 164.213 553.289 163.98C553.076 163.74 552.759 163.62 552.339 163.62C551.919 163.62 551.603 163.74 551.389 163.98C551.176 164.213 551.033 164.517 550.959 164.89C550.893 165.263 550.859 165.72 550.859 166.26C550.859 166.82 550.893 167.29 550.959 167.67C551.026 168.05 551.166 168.357 551.379 168.59C551.599 168.823 551.919 168.94 552.339 168.94C552.759 168.94 553.076 168.823 553.289 168.59C553.509 168.357 553.653 168.05 553.719 167.67C553.786 167.29 553.819 166.82 553.819 166.26ZM556.446 166.26C556.446 165.107 556.639 164.207 557.026 163.56C557.419 162.907 558.092 162.58 559.046 162.58C559.999 162.58 560.669 162.907 561.056 163.56C561.449 164.207 561.646 165.107 561.646 166.26C561.646 167.427 561.449 168.34 561.056 169C560.669 169.653 559.999 169.98 559.046 169.98C558.092 169.98 557.419 169.653 557.026 169C556.639 168.34 556.446 167.427 556.446 166.26ZM560.526 166.26C560.526 165.72 560.489 165.263 560.416 164.89C560.349 164.517 560.209 164.213 559.996 163.98C559.782 163.74 559.466 163.62 559.046 163.62C558.626 163.62 558.309 163.74 558.096 163.98C557.882 164.213 557.739 164.517 557.666 164.89C557.599 165.263 557.566 165.72 557.566 166.26C557.566 166.82 557.599 167.29 557.666 167.67C557.732 168.05 557.872 168.357 558.086 168.59C558.306 168.823 558.626 168.94 559.046 168.94C559.466 168.94 559.782 168.823 559.996 168.59C560.216 168.357 560.359 168.05 560.426 167.67C560.492 167.29 560.526 166.82 560.526 166.26ZM563.152 166.26C563.152 165.107 563.345 164.207 563.732 163.56C564.125 162.907 564.799 162.58 565.752 162.58C566.705 162.58 567.375 162.907 567.762 163.56C568.155 164.207 568.352 165.107 568.352 166.26C568.352 167.427 568.155 168.34 567.762 169C567.375 169.653 566.705 169.98 565.752 169.98C564.799 169.98 564.125 169.653 563.732 169C563.345 168.34 563.152 167.427 563.152 166.26ZM567.232 166.26C567.232 165.72 567.195 165.263 567.122 164.89C567.055 164.517 566.915 164.213 566.702 163.98C566.489 163.74 566.172 163.62 565.752 163.62C565.332 163.62 565.015 163.74 564.802 163.98C564.589 164.213 564.445 164.517 564.372 164.89C564.305 165.263 564.272 165.72 564.272 166.26C564.272 166.82 564.305 167.29 564.372 167.67C564.439 168.05 564.579 168.357 564.792 168.59C565.012 168.823 565.332 168.94 565.752 168.94C566.172 168.94 566.489 168.823 566.702 168.59C566.922 168.357 567.065 168.05 567.132 167.67C567.199 167.29 567.232 166.82 567.232 166.26Z" fill="#4A4A4A"/>
<path d="M525.056 149.112C524.235 149.112 523.499 148.979 522.848 148.712C522.197 148.445 521.675 148.051 521.28 147.528C520.896 147.005 520.693 146.376 520.672 145.64H523.584C523.627 146.056 523.771 146.376 524.016 146.6C524.261 146.813 524.581 146.92 524.976 146.92C525.381 146.92 525.701 146.829 525.936 146.648C526.171 146.456 526.288 146.195 526.288 145.864C526.288 145.587 526.192 145.357 526 145.176C525.819 144.995 525.589 144.845 525.312 144.728C525.045 144.611 524.661 144.477 524.16 144.328C523.435 144.104 522.843 143.88 522.384 143.656C521.925 143.432 521.531 143.101 521.2 142.664C520.869 142.227 520.704 141.656 520.704 140.952C520.704 139.907 521.083 139.091 521.84 138.504C522.597 137.907 523.584 137.608 524.8 137.608C526.037 137.608 527.035 137.907 527.792 138.504C528.549 139.091 528.955 139.912 529.008 140.968H526.048C526.027 140.605 525.893 140.323 525.648 140.12C525.403 139.907 525.088 139.8 524.704 139.8C524.373 139.8 524.107 139.891 523.904 140.072C523.701 140.243 523.6 140.493 523.6 140.824C523.6 141.187 523.771 141.469 524.112 141.672C524.453 141.875 524.987 142.093 525.712 142.328C526.437 142.573 527.024 142.808 527.472 143.032C527.931 143.256 528.325 143.581 528.656 144.008C528.987 144.435 529.152 144.984 529.152 145.656C529.152 146.296 528.987 146.877 528.656 147.4C528.336 147.923 527.867 148.339 527.248 148.648C526.629 148.957 525.899 149.112 525.056 149.112ZM542.02 137.768L538.036 149H534.612L530.628 137.768H533.54L536.324 146.248L539.124 137.768H542.02ZM550.795 147.016H546.603L545.931 149H543.067L547.131 137.768H550.299L554.363 149H551.467L550.795 147.016ZM550.091 144.904L548.699 140.792L547.323 144.904H550.091ZM561.968 149L559.632 144.76H558.976V149H556.24V137.768H560.832C561.717 137.768 562.469 137.923 563.088 138.232C563.717 138.541 564.187 138.968 564.496 139.512C564.805 140.045 564.96 140.643 564.96 141.304C564.96 142.051 564.747 142.717 564.32 143.304C563.904 143.891 563.285 144.307 562.464 144.552L565.056 149H561.968ZM558.976 142.824H560.672C561.173 142.824 561.547 142.701 561.792 142.456C562.048 142.211 562.176 141.864 562.176 141.416C562.176 140.989 562.048 140.653 561.792 140.408C561.547 140.163 561.173 140.04 560.672 140.04H558.976V142.824ZM575.398 137.768V139.96H572.422V149H569.686V139.96H566.71V137.768H575.398Z" fill="#4A4A4A"/>
<defs>
<filter id="filter0_i_270_42" x="16" y="33" width="160" height="80" filterUnits="userSpaceOnUse" color-interpolation-filters="sRGB">
<feFlood flood-opacity="0" result="BackgroundImageFix"/>
<feBlend mode="normal" in="SourceGraphic" in2="BackgroundImageFix" result="shape"/>
<feColorMatrix in="SourceAlpha" type="matrix" values="0 0 0 0 0 0 0 0 0 0 0 0 0 0 0 0 0 0 127 0" result="hardAlpha"/>
<feOffset/>
<feGaussianBlur stdDeviation="6"/>
<feComposite in2="hardAlpha" operator="arithmetic" k2="-1" k3="1"/>
<feColorMatrix type="matrix" values="0 0 0 0 0 0 0 0 0 0 0 0 0 0 0 0 0 0 0.05 0"/>
<feBlend mode="normal" in2="shape" result="effect1_innerShadow_270_42"/>
</filter>
<filter id="filter1_i_270_42" x="352" y="33" width="160" height="80" filterUnits="userSpaceOnUse" color-interpolation-filters="sRGB">
<feFlood flood-opacity="0" result="BackgroundImageFix"/>
<feBlend mode="normal" in="SourceGraphic" in2="BackgroundImageFix" result="shape"/>
<feColorMatrix in="SourceAlpha" type="matrix" values="0 0 0 0 0 0 0 0 0 0 0 0 0 0 0 0 0 0 127 0" result="hardAlpha"/>
<feOffset/>
<feGaussianBlur stdDeviation="6"/>
<feComposite in2="hardAlpha" operator="arithmetic" k2="-1" k3="1"/>
<feColorMatrix type="matrix" values="0 0 0 0 0 0 0 0 0 0 0 0 0 0 0 0 0 0 0.05 0"/>
<feBlend mode="normal" in2="shape" result="effect1_innerShadow_270_42"/>
</filter>
<filter id="filter2_i_270_42" x="184" y="33" width="160" height="80" filterUnits="userSpaceOnUse" color-interpolation-filters="sRGB">
<feFlood flood-opacity="0" result="BackgroundImageFix"/>
<feBlend mode="normal" in="SourceGraphic" in2="BackgroundImageFix" result="shape"/>
<feColorMatrix in="SourceAlpha" type="matrix" values="0 0 0 0 0 0 0 0 0 0 0 0 0 0 0 0 0 0 127 0" result="hardAlpha"/>
<feOffset/>
<feGaussianBlur stdDeviation="6"/>
<feComposite in2="hardAlpha" operator="arithmetic" k2="-1" k3="1"/>
<feColorMatrix type="matrix" values="0 0 0 0 0 0 0 0 0 0 0 0 0 0 0 0 0 0 0.05 0"/>
<feBlend mode="normal" in2="shape" result="effect1_innerShadow_270_42"/>
</filter>
<filter id="filter3_i_270_42" x="520" y="33" width="160" height="80" filterUnits="userSpaceOnUse" color-interpolation-filters="sRGB">
<feFlood flood-opacity="0" result="BackgroundImageFix"/>
<feBlend mode="normal" in="SourceGraphic" in2="BackgroundImageFix" result="shape"/>
<feColorMatrix in="SourceAlpha" type="matrix" values="0 0 0 0 0 0 0 0 0 0 0 0 0 0 0 0 0 0 127 0" result="hardAlpha"/>
<feOffset/>
<feGaussianBlur stdDeviation="6"/>
<feComposite in2="hardAlpha" operator="arithmetic" k2="-1" k3="1"/>
<feColorMatrix type="matrix" values="0 0 0 0 0 0 0 0 0 0 0 0 0 0 0 0 0 0 0.05 0"/>
<feBlend mode="normal" in2="shape" result="effect1_innerShadow_270_42"/>
</filter>
</defs>
</svg>
