<svg width="1084" height="250" viewBox="0 0 1084 250" fill="none" xmlns="http://www.w3.org/2000/svg">
<rect x="6.1875" y="9" width="1070.42" height="232" stroke="#816E81" stroke-width="2"/>
<rect x="1072.75" y="4.75" width="10.5" height="10.5" fill="white" stroke="#816E81" stroke-width="1.5"/>
<path d="M80.2407 100.93V121.9H103.101V128.65H80.2407V150.25H105.801V157H72.0507V94.18H105.801V100.93H80.2407ZM139.253 149.44L154.553 107.68H163.283L143.933 157H134.393L115.043 107.68H123.863L139.253 149.44ZM170.982 132.16C170.982 127.12 172.002 122.71 174.042 118.93C176.082 115.09 178.872 112.12 182.412 110.02C186.012 107.92 190.002 106.87 194.382 106.87C198.702 106.87 202.452 107.8 205.632 109.66C208.812 111.52 211.182 113.86 212.742 116.68V107.68H221.022V157H212.742V147.82C211.122 150.7 208.692 153.1 205.452 155.02C202.272 156.88 198.552 157.81 194.292 157.81C189.912 157.81 185.952 156.73 182.412 154.57C178.872 152.41 176.082 149.38 174.042 145.48C172.002 141.58 170.982 137.14 170.982 132.16ZM212.742 132.25C212.742 128.53 211.992 125.29 210.492 122.53C208.992 119.77 206.952 117.67 204.372 116.23C201.852 114.73 199.062 113.98 196.002 113.98C192.942 113.98 190.152 114.7 187.632 116.14C185.112 117.58 183.102 119.68 181.602 122.44C180.102 125.2 179.352 128.44 179.352 132.16C179.352 135.94 180.102 139.24 181.602 142.06C183.102 144.82 185.112 146.95 187.632 148.45C190.152 149.89 192.942 150.61 196.002 150.61C199.062 150.61 201.852 149.89 204.372 148.45C206.952 146.95 208.992 144.82 210.492 142.06C211.992 139.24 212.742 135.97 212.742 132.25ZM299.717 94.27V100.93H272.447V122.08H294.587V128.74H272.447V157H264.257V94.27H299.717ZM333.819 157.81C329.199 157.81 324.999 156.76 321.219 154.66C317.499 152.56 314.559 149.59 312.399 145.75C310.299 141.85 309.249 137.35 309.249 132.25C309.249 127.21 310.329 122.77 312.489 118.93C314.709 115.03 317.709 112.06 321.489 110.02C325.269 107.92 329.499 106.87 334.179 106.87C338.859 106.87 343.089 107.92 346.869 110.02C350.649 112.06 353.619 115 355.779 118.84C357.999 122.68 359.109 127.15 359.109 132.25C359.109 137.35 357.969 141.85 355.689 145.75C353.469 149.59 350.439 152.56 346.599 154.66C342.759 156.76 338.499 157.81 333.819 157.81ZM333.819 150.61C336.759 150.61 339.519 149.92 342.099 148.54C344.679 147.16 346.749 145.09 348.309 142.33C349.929 139.57 350.739 136.21 350.739 132.25C350.739 128.29 349.959 124.93 348.399 122.17C346.839 119.41 344.799 117.37 342.279 116.05C339.759 114.67 337.029 113.98 334.089 113.98C331.089 113.98 328.329 114.67 325.809 116.05C323.349 117.37 321.369 119.41 319.869 122.17C318.369 124.93 317.619 128.29 317.619 132.25C317.619 136.27 318.339 139.66 319.779 142.42C321.279 145.18 323.259 147.25 325.719 148.63C328.179 149.95 330.879 150.61 333.819 150.61ZM390.037 157.81C386.257 157.81 382.867 157.18 379.867 155.92C376.867 154.6 374.497 152.8 372.757 150.52C371.017 148.18 370.057 145.51 369.877 142.51H378.337C378.577 144.97 379.717 146.98 381.757 148.54C383.857 150.1 386.587 150.88 389.947 150.88C393.067 150.88 395.527 150.19 397.327 148.81C399.127 147.43 400.027 145.69 400.027 143.59C400.027 141.43 399.067 139.84 397.147 138.82C395.227 137.74 392.257 136.69 388.237 135.67C384.577 134.71 381.577 133.75 379.237 132.79C376.957 131.77 374.977 130.3 373.297 128.38C371.677 126.4 370.867 123.82 370.867 120.64C370.867 118.12 371.617 115.81 373.117 113.71C374.617 111.61 376.747 109.96 379.507 108.76C382.267 107.5 385.417 106.87 388.957 106.87C394.417 106.87 398.827 108.25 402.187 111.01C405.547 113.77 407.347 117.55 407.587 122.35H399.397C399.217 119.77 398.167 117.7 396.247 116.14C394.387 114.58 391.867 113.8 388.687 113.8C385.747 113.8 383.407 114.43 381.667 115.69C379.927 116.95 379.057 118.6 379.057 120.64C379.057 122.26 379.567 123.61 380.587 124.69C381.667 125.71 382.987 126.55 384.547 127.21C386.167 127.81 388.387 128.5 391.207 129.28C394.747 130.24 397.627 131.2 399.847 132.16C402.067 133.06 403.957 134.44 405.517 136.3C407.137 138.16 407.977 140.59 408.037 143.59C408.037 146.29 407.287 148.72 405.787 150.88C404.287 153.04 402.157 154.75 399.397 156.01C396.697 157.21 393.577 157.81 390.037 157.81ZM439.758 157.81C435.978 157.81 432.588 157.18 429.588 155.92C426.588 154.6 424.218 152.8 422.478 150.52C420.738 148.18 419.778 145.51 419.598 142.51H428.058C428.298 144.97 429.438 146.98 431.478 148.54C433.578 150.1 436.308 150.88 439.668 150.88C442.788 150.88 445.248 150.19 447.048 148.81C448.848 147.43 449.748 145.69 449.748 143.59C449.748 141.43 448.788 139.84 446.868 138.82C444.948 137.74 441.978 136.69 437.958 135.67C434.298 134.71 431.298 133.75 428.958 132.79C426.678 131.77 424.698 130.3 423.018 128.38C421.398 126.4 420.588 123.82 420.588 120.64C420.588 118.12 421.338 115.81 422.838 113.71C424.338 111.61 426.468 109.96 429.228 108.76C431.988 107.5 435.138 106.87 438.678 106.87C444.138 106.87 448.548 108.25 451.908 111.01C455.268 113.77 457.068 117.55 457.308 122.35H449.118C448.938 119.77 447.888 117.7 445.968 116.14C444.108 114.58 441.588 113.8 438.408 113.8C435.468 113.8 433.128 114.43 431.388 115.69C429.648 116.95 428.778 118.6 428.778 120.64C428.778 122.26 429.288 123.61 430.308 124.69C431.388 125.71 432.708 126.55 434.268 127.21C435.888 127.81 438.108 128.5 440.928 129.28C444.468 130.24 447.348 131.2 449.568 132.16C451.788 133.06 453.678 134.44 455.238 136.3C456.858 138.16 457.698 140.59 457.758 143.59C457.758 146.29 457.008 148.72 455.508 150.88C454.008 153.04 451.878 154.75 449.118 156.01C446.418 157.21 443.298 157.81 439.758 157.81ZM517.02 130.45C517.02 132.01 516.93 133.66 516.75 135.4H477.33C477.63 140.26 479.28 144.07 482.28 146.83C485.34 149.53 489.03 150.88 493.35 150.88C496.89 150.88 499.83 150.07 502.17 148.45C504.57 146.77 506.25 144.55 507.21 141.79H516.03C514.71 146.53 512.07 150.4 508.11 153.4C504.15 156.34 499.23 157.81 493.35 157.81C488.67 157.81 484.47 156.76 480.75 154.66C477.09 152.56 474.21 149.59 472.11 145.75C470.01 141.85 468.96 137.35 468.96 132.25C468.96 127.15 469.98 122.68 472.02 118.84C474.06 115 476.91 112.06 480.57 110.02C484.29 107.92 488.55 106.87 493.35 106.87C498.03 106.87 502.17 107.89 505.77 109.93C509.37 111.97 512.13 114.79 514.05 118.39C516.03 121.93 517.02 125.95 517.02 130.45ZM508.56 128.74C508.56 125.62 507.87 122.95 506.49 120.73C505.11 118.45 503.22 116.74 500.82 115.6C498.48 114.4 495.87 113.8 492.99 113.8C488.85 113.8 485.31 115.12 482.37 117.76C479.49 120.4 477.84 124.06 477.42 128.74H508.56ZM554.56 106.78C560.56 106.78 565.42 108.61 569.14 112.27C572.86 115.87 574.72 121.09 574.72 127.93V157H566.62V129.1C566.62 124.18 565.39 120.43 562.93 117.85C560.47 115.21 557.11 113.89 552.85 113.89C548.53 113.89 545.08 115.24 542.5 117.94C539.98 120.64 538.72 124.57 538.72 129.73V157H530.53V107.68H538.72V114.7C540.34 112.18 542.53 110.23 545.29 108.85C548.11 107.47 551.2 106.78 554.56 106.78ZM665.823 94.27V157H657.633V128.56H625.683V157H617.493V94.27H625.683V121.81H657.633V94.27H665.823ZM679.447 132.16C679.447 127.12 680.467 122.71 682.507 118.93C684.547 115.09 687.337 112.12 690.877 110.02C694.477 107.92 698.467 106.87 702.847 106.87C707.167 106.87 710.917 107.8 714.097 109.66C717.277 111.52 719.647 113.86 721.207 116.68V107.68H729.487V157H721.207V147.82C719.587 150.7 717.157 153.1 713.917 155.02C710.737 156.88 707.017 157.81 702.757 157.81C698.377 157.81 694.417 156.73 690.877 154.57C687.337 152.41 684.547 149.38 682.507 145.48C680.467 141.58 679.447 137.14 679.447 132.16ZM721.207 132.25C721.207 128.53 720.457 125.29 718.957 122.53C717.457 119.77 715.417 117.67 712.837 116.23C710.317 114.73 707.527 113.98 704.467 113.98C701.407 113.98 698.617 114.7 696.097 116.14C693.577 117.58 691.567 119.68 690.067 122.44C688.567 125.2 687.817 128.44 687.817 132.16C687.817 135.94 688.567 139.24 690.067 142.06C691.567 144.82 693.577 146.95 696.097 148.45C698.617 149.89 701.407 150.61 704.467 150.61C707.527 150.61 710.317 149.89 712.837 148.45C715.417 146.95 717.457 144.82 718.957 142.06C720.457 139.24 721.207 135.97 721.207 132.25ZM789.768 107.68V157H781.578V149.71C780.018 152.23 777.828 154.21 775.008 155.65C772.248 157.03 769.188 157.72 765.828 157.72C761.988 157.72 758.538 156.94 755.478 155.38C752.418 153.76 749.988 151.36 748.188 148.18C746.448 145 745.578 141.13 745.578 136.57V107.68H753.678V135.49C753.678 140.35 754.908 144.1 757.368 146.74C759.828 149.32 763.188 150.61 767.448 150.61C771.828 150.61 775.278 149.26 777.798 146.56C780.318 143.86 781.578 139.93 781.578 134.77V107.68H789.768ZM826.636 106.87C830.896 106.87 834.616 107.8 837.796 109.66C841.036 111.52 843.436 113.86 844.996 116.68V107.68H853.276V158.08C853.276 162.58 852.316 166.57 850.396 170.05C848.476 173.59 845.716 176.35 842.116 178.33C838.576 180.31 834.436 181.3 829.696 181.3C823.216 181.3 817.816 179.77 813.496 176.71C809.176 173.65 806.626 169.48 805.846 164.2H813.946C814.846 167.2 816.706 169.6 819.526 171.4C822.346 173.26 825.736 174.19 829.696 174.19C834.196 174.19 837.856 172.78 840.676 169.96C843.556 167.14 844.996 163.18 844.996 158.08V147.73C843.376 150.61 840.976 153.01 837.796 154.93C834.616 156.85 830.896 157.81 826.636 157.81C822.256 157.81 818.266 156.73 814.666 154.57C811.126 152.41 808.336 149.38 806.296 145.48C804.256 141.58 803.236 137.14 803.236 132.16C803.236 127.12 804.256 122.71 806.296 118.93C808.336 115.09 811.126 112.12 814.666 110.02C818.266 107.92 822.256 106.87 826.636 106.87ZM844.996 132.25C844.996 128.53 844.246 125.29 842.746 122.53C841.246 119.77 839.206 117.67 836.626 116.23C834.106 114.73 831.316 113.98 828.256 113.98C825.196 113.98 822.406 114.7 819.886 116.14C817.366 117.58 815.356 119.68 813.856 122.44C812.356 125.2 811.606 128.44 811.606 132.16C811.606 135.94 812.356 139.24 813.856 142.06C815.356 144.82 817.366 146.95 819.886 148.45C822.406 149.89 825.196 150.61 828.256 150.61C831.316 150.61 834.106 149.89 836.626 148.45C839.206 146.95 841.246 144.82 842.746 142.06C844.246 139.24 844.996 135.97 844.996 132.25ZM913.556 107.68V157H905.366V149.71C903.806 152.23 901.616 154.21 898.796 155.65C896.036 157.03 892.976 157.72 889.616 157.72C885.776 157.72 882.326 156.94 879.266 155.38C876.206 153.76 873.776 151.36 871.976 148.18C870.236 145 869.366 141.13 869.366 136.57V107.68H877.466V135.49C877.466 140.35 878.696 144.1 881.156 146.74C883.616 149.32 886.976 150.61 891.236 150.61C895.616 150.61 899.066 149.26 901.586 146.56C904.106 143.86 905.366 139.93 905.366 134.77V107.68H913.556ZM989.395 106.78C993.235 106.78 996.655 107.59 999.655 109.21C1002.65 110.77 1005.02 113.14 1006.76 116.32C1008.5 119.5 1009.37 123.37 1009.37 127.93V157H1001.27V129.1C1001.27 124.18 1000.04 120.43 997.585 117.85C995.185 115.21 991.915 113.89 987.775 113.89C983.515 113.89 980.125 115.27 977.605 118.03C975.085 120.73 973.825 124.66 973.825 129.82V157H965.725V129.1C965.725 124.18 964.495 120.43 962.035 117.85C959.635 115.21 956.365 113.89 952.225 113.89C947.965 113.89 944.575 115.27 942.055 118.03C939.535 120.73 938.275 124.66 938.275 129.82V157H930.085V107.68H938.275V114.79C939.895 112.21 942.055 110.23 944.755 108.85C947.515 107.47 950.545 106.78 953.845 106.78C957.985 106.78 961.645 107.71 964.825 109.57C968.005 111.43 970.375 114.16 971.935 117.76C973.315 114.28 975.595 111.58 978.775 109.66C981.955 107.74 985.495 106.78 989.395 106.78Z" fill="black"/>
<rect x="1072.75" y="234.75" width="10.5" height="10.5" fill="white" stroke="#816E81" stroke-width="1.5"/>
<rect x="1.75" y="234.75" width="10.5" height="10.5" fill="white" stroke="#816E81" stroke-width="1.5"/>
<rect x="0.75" y="4.75" width="10.5" height="10.5" fill="white" stroke="#816E81" stroke-width="1.5"/>
</svg>
